<svg width="314" height="326" viewBox="0 0 314 326" fill="none" xmlns="http://www.w3.org/2000/svg">
<path d="M98.6083 249.237C116.482 252.547 116.244 232.926 129.391 219.779C139.982 209.188 160.833 209.519 157.855 189.991C155.77 176.319 109.862 166.491 92.9827 183.371C76.103 200.251 85.2034 246.755 98.6083 249.237Z" fill="#D4D4BE" fill-opacity="0.5"/>
<ellipse rx="13.2972" ry="19.2515" transform="matrix(0.530474 -0.847701 0.847697 0.53048 61.7444 179.162)" fill="#D4D4BE" fill-opacity="0.5"/>
<ellipse cx="60.6905" cy="215.134" rx="12.6121" ry="15.7765" transform="rotate(-70.5324 60.6905 215.134)" fill="#D4D4BE" fill-opacity="0.5"/>
<ellipse rx="12.6121" ry="15.7765" transform="matrix(-0.94283 0.333274 0.333274 0.94283 124.407 151.963)" fill="#D4D4BE" fill-opacity="0.5"/>
<ellipse rx="13.2972" ry="19.2516" transform="matrix(-0.847699 0.530477 0.530477 0.847699 88.1629 152.744)" fill="#D4D4BE" fill-opacity="0.5"/>
<path d="M246.093 161.574C234.167 163.782 234.326 150.69 225.554 141.918C218.487 134.851 204.574 135.072 206.561 122.042C207.952 112.92 238.584 106.362 249.847 117.625C261.11 128.888 255.037 159.917 246.093 161.574Z" fill="#E9BAC0" fill-opacity="0.5"/>
<ellipse rx="8.87245" ry="12.8454" transform="matrix(-0.530474 -0.847701 -0.847697 0.53048 270.69 114.817)" fill="#E9BAC0" fill-opacity="0.5"/>
<ellipse rx="8.41529" ry="10.5267" transform="matrix(-0.333274 -0.94283 -0.94283 0.333274 271.393 138.818)" fill="#E9BAC0" fill-opacity="0.5"/>
<ellipse cx="228.879" cy="96.6683" rx="8.41529" ry="10.5267" transform="rotate(19.4676 228.879 96.6683)" fill="#E9BAC0" fill-opacity="0.5"/>
<ellipse cx="253.063" cy="97.1889" rx="8.87245" ry="12.8454" transform="rotate(32.0377 253.063 97.1889)" fill="#E9BAC0" fill-opacity="0.5"/>
</svg>
