<svg width="54" height="54" viewBox="0 0 54 54" fill="none" xmlns="http://www.w3.org/2000/svg">
<g filter="url(#filter0_d_120_10)">
<circle cx="27" cy="27" r="25" fill="#EFC2C8" fill-opacity="0.79" shape-rendering="crispEdges"/>
<circle cx="27" cy="27" r="24.5" stroke="white" shape-rendering="crispEdges"/>
</g>
<g clip-path="url(#clip0_120_10)">
<path d="M38.0227 33.5365C38.2898 33.6903 38.6344 33.9661 38.7516 34.0394C38.9883 34.1883 39.2156 34.3226 39.443 34.4886C39.9492 34.8621 40.1461 35.3553 39.7758 35.9119C39.2836 36.6492 38.0062 38.202 37.0289 37.7113C36.668 37.5257 37.3078 35.807 37.3711 35.5067C37.4602 35.0916 37.4461 33.2069 38.0227 33.5365V33.5365Z" fill="white"/>
<path d="M19.2352 19.6864C19.1578 19.5106 19.2797 19.2078 19.4508 18.9759C19.6148 18.7562 19.8305 18.5462 19.9641 18.307C20.2664 17.7674 19.8727 15.5238 20.407 15.5238C20.6906 15.5238 21.0211 15.9046 21.1781 16.1097C21.4195 16.4222 21.5578 16.8128 21.7922 17.1375C21.9586 17.3695 22.2 17.616 22.2656 17.9041C22.4109 18.5413 21.7219 18.8074 21.2977 19.0711C20.7797 19.3909 20.2195 19.7669 19.6031 19.8255C19.3945 19.8475 19.2797 19.7889 19.2352 19.6864V19.6864Z" fill="white"/>
<path d="M17.6484 10.7435C14.5969 12.9237 11.8359 15.3162 12.2016 18.1483C12.5859 21.1829 16.0641 27.8797 20.6109 32.616C25.1578 37.3499 31.5797 40.9705 34.5 41.3758C37.2188 41.7542 39.5133 38.8782 41.6063 35.6995C41.932 35.2552 41.9039 34.6156 41.5148 34.2103C41.468 34.1614 41.4164 34.1224 41.3672 34.0833V34.0736L34.9945 29.3323H34.9875C34.5586 29.0076 33.9609 29.0394 33.5742 29.4447C33.5344 29.4837 33.5039 29.5301 33.4734 29.5716C33.4711 29.5716 33.4711 29.574 33.4711 29.574C33.4523 29.6033 33.4359 29.6302 33.4172 29.6546C32.9906 30.2943 32.9953 30.3748 32.6484 30.9266C32.1609 31.7298 31.5938 32.9676 31.0336 34.369C29.2453 34.0858 26.5805 32.4671 23.6672 29.43C20.7492 26.3978 19.1953 23.6219 18.9211 21.7567C20.2711 21.1732 21.457 20.5848 22.2258 20.0745C22.7578 19.7132 22.8352 19.7181 23.4469 19.2738C23.475 19.2567 23.5008 19.2371 23.5242 19.2176C23.5687 19.1859 23.6109 19.1492 23.6484 19.1126C23.8329 18.9214 23.9451 18.6674 23.9645 18.397C23.9839 18.1267 23.9091 17.8581 23.7539 17.6405L23.7586 17.6307L19.2094 10.9974L19.2023 10.9949C19.1672 10.9412 19.1273 10.8875 19.0828 10.8411C18.8956 10.6467 18.647 10.5296 18.3832 10.5116C18.1194 10.4937 17.8583 10.576 17.6484 10.7435" fill="#F08593"/>
</g>
<defs>
<filter id="filter0_d_120_10" x="0" y="0" width="54" height="54" filterUnits="userSpaceOnUse" color-interpolation-filters="sRGB">
<feFlood flood-opacity="0" result="BackgroundImageFix"/>
<feColorMatrix in="SourceAlpha" type="matrix" values="0 0 0 0 0 0 0 0 0 0 0 0 0 0 0 0 0 0 127 0" result="hardAlpha"/>
<feOffset/>
<feGaussianBlur stdDeviation="1"/>
<feComposite in2="hardAlpha" operator="out"/>
<feColorMatrix type="matrix" values="0 0 0 0 0.941176 0 0 0 0 0.521569 0 0 0 0 0.576471 0 0 0 1 0"/>
<feBlend mode="normal" in2="BackgroundImageFix" result="effect1_dropShadow_120_10"/>
<feBlend mode="normal" in="SourceGraphic" in2="effect1_dropShadow_120_10" result="shape"/>
</filter>
<clipPath id="clip0_120_10">
<rect width="30" height="31.25" fill="white" transform="translate(12 10.3333)"/>
</clipPath>
</defs>
</svg>
